<svg xmlns="http://www.w3.org/2000/svg" viewBox="0 0 113.95 60.48">
  <title>g8tor-logo</title>
  <g id="Layer_2" data-name="Layer 2">
    <g id="Layer_1-2" data-name="Layer 1">
      <g id="ST">
        <path d="M25.51,47.16C11.42,47.16,0,36.6,0,23.58S11.42,0,25.51,0H71.25l0,10H56.4V38.27H71.24v9H50.43V60.48H35.23V47.35Zm-1.82-39A15.62,15.62,0,1,0,39.15,23.79,15.54,15.54,0,0,0,23.68,8.17Z" fill="#040000"/>
        <g id="The">
          <path d="M43.38,19.47v9.35h-1.7V19.47H40.43V17.8h4.19v1.67Z" fill="#ffe800"/>
          <path d="M47.75,28.82V24.29h-.94v4.54H45.08v-11h1.72v4.77h.94V17.8h1.72v11Z" fill="#ffe800"/>
          <path d="M50.3,28.82v-11h3.59v1.59H52v3h1.24v1.51H52v3.33h1.87v1.59Z" fill="#ffe800"/>
        </g>
        <rect x="57.92" y="11.62" width="52.06" height="25.26" fill="#ffe800"/>
        <g>
          <path d="M66.08,26.63h-1V23.55h4.05v7.64a4,4,0,0,1-4.09,4.3,4.24,4.24,0,0,1-4.35-4.4V17.86a4.26,4.26,0,0,1,4.35-4.4,4,4,0,0,1,4.09,4.3V21H66.08V17.67a.89.89,0,0,0-1-1,.87.87,0,0,0-.95,1V31.28a.87.87,0,0,0,.95,1,.9.9,0,0,0,1-1Z" fill="#040000"/>
          <path d="M78.76,21.62c0,1.16-.23,2.18-1.31,2.67a2.62,2.62,0,0,1,1.31,2.54v4.91c0,2.79-2.45,3.76-4.12,3.76s-4.12-1-4.12-3.76V26.82a2.63,2.63,0,0,1,1.31-2.54c-1.08-.48-1.31-1.51-1.31-2.67V17.38a4.12,4.12,0,0,1,8.24,0Zm-4.12-4.94c-.52,0-.69.35-.69,1V22c0,.48.2.83.69.83s.69-.35.69-.83V17.7C75.33,17,75.16,16.68,74.64,16.68Zm.69,14.74V26.57c0-.51-.2-.83-.69-.83s-.69.32-.69.83v4.85c0,.51.2.87.69.87S75.33,31.93,75.33,31.41Z" fill="#040000"/>
          <path d="M97,17.77V31.19a4.25,4.25,0,1,1-8.5,0V17.77a4.25,4.25,0,1,1,8.5,0Zm-5.07-.23V31.41a.82.82,0,1,0,1.63,0V17.54a.82.82,0,1,0-1.63,0Z" fill="#040000"/>
          <path d="M107.13,35.17H103.9a9.18,9.18,0,0,1-.46-3.31V27.21c0-.61-.16-1-.75-1h-.78v8.93H98.5V13.79h4.58a3.39,3.39,0,0,1,3.53,3.76v4.88a2.61,2.61,0,0,1-1.14,2.41,2.67,2.67,0,0,1,1.24,2.44v4.33A16.16,16.16,0,0,0,107.13,35.17Zm-3.79-17.43c0-.64-.2-.93-.65-.93h-.78v6.61h.82c.46,0,.62-.26.62-.93Z" fill="#040000"/>
          <polygon points="85.36 17.81 85.36 13.46 81.99 13.46 81.99 17.81 79.54 17.81 79.54 21.05 81.99 21.05 81.99 21.87 81.99 35.48 85.36 35.48 85.36 21.87 85.36 21.05 87.81 21.05 87.81 17.81 85.36 17.81" fill="#040000"/>
        </g>
        <g>
          <path d="M112.11,34.47v.22h-.48v2.14h-.25V34.68h-.48v-.22Z" fill="#231f20"/>
          <path d="M112.72,34.47l.41,1.78h0l.4-1.78h.4v2.36h-.23V34.66h0l-.49,2.16H113l-.49-2.16h0v2.16h-.23V34.47Z" fill="#231f20"/>
        </g>
      </g>
    </g>
  </g>
</svg>
